<?xml version="1.0" standalone="no"?>
<!DOCTYPE svg PUBLIC "-//W3C//DTD SVG 20010904//EN"
 "http://www.w3.org/TR/2001/REC-SVG-20010904/DTD/svg10.dtd">
<svg version="1.0" xmlns="http://www.w3.org/2000/svg"
 width="348.000000pt" height="199.000000pt" viewBox="0 0 348.000000 199.000000"
 preserveAspectRatio="xMidYMid meet">

<g transform="translate(0.000000,199.000000) scale(0.100000,-0.100000)"
fill="#000000" stroke="none">
<path d="M1194 1948 c-75 -78 -144 -199 -192 -333 -33 -96 -42 -256 -17 -341
24 -84 87 -200 142 -263 50 -57 173 -164 181 -156 2 2 -11 23 -30 47 -80 98
-185 266 -203 323 -34 106 -24 223 30 350 24 57 97 164 140 205 l36 35 80 -44
c73 -39 80 -41 69 -20 -25 49 -100 145 -147 192 l-49 47 -40 -42z"/>
<path d="M2218 1953 c-58 -64 -148 -195 -148 -217 0 -3 32 15 72 40 40 24 78
44 84 44 23 0 94 -95 143 -191 62 -122 77 -188 61 -277 -26 -149 -65 -230
-191 -397 -43 -58 -77 -105 -73 -105 3 0 24 13 47 29 149 102 261 256 302 412
13 49 16 89 12 169 -6 126 -30 209 -95 334 -37 70 -60 100 -105 138 -32 26
-64 48 -71 48 -7 0 -24 -12 -38 -27z"/>
<path d="M1659 1808 c-252 -194 -386 -377 -397 -542 -7 -118 12 -207 69 -316
59 -112 176 -268 239 -319 l45 -36 -52 66 c-196 248 -226 515 -82 735 47 73
253 274 280 274 19 0 140 -125 207 -215 25 -33 61 -94 81 -135 33 -69 36 -83
39 -181 3 -75 -1 -126 -12 -170 -20 -79 -90 -229 -133 -286 -53 -70 -19 -49
48 29 110 127 202 283 234 392 23 80 17 219 -15 299 -41 107 -132 229 -238
320 -87 76 -198 157 -212 157 -3 0 -49 -33 -101 -72z"/>
<path d="M496 1669 c-19 -98 5 -234 65 -358 51 -104 149 -208 250 -264 59 -33
241 -107 263 -107 5 0 -46 37 -115 81 -71 47 -152 110 -189 148 -99 101 -163
240 -171 371 l-3 45 46 -2 c25 -2 81 -16 124 -31 44 -16 88 -32 99 -36 39 -15
-73 80 -133 112 -74 40 -165 72 -202 72 -23 0 -29 -5 -34 -31z"/>
<path d="M2915 1666 c-104 -43 -214 -98 -245 -124 -24 -20 -21 -20 53 4 43 13
102 24 132 24 l55 0 0 -39 c0 -119 -59 -257 -148 -348 -60 -61 -187 -151 -296
-210 -33 -18 -57 -33 -53 -33 5 0 54 18 110 40 140 54 257 128 349 220 93 93
142 184 159 300 13 90 2 193 -21 197 -8 1 -51 -13 -95 -31z"/>
<path d="M3151 1390 c-119 -172 -235 -283 -369 -351 l-67 -34 133 -3 c126 -2
137 -1 190 23 113 52 134 88 140 245 6 154 3 164 -27 120z"/>
<path d="M345 1366 c-4 -25 -6 -81 -4 -124 5 -94 33 -146 103 -187 56 -33 170
-57 254 -53 l66 3 -61 37 c-69 43 -160 136 -263 270 -40 51 -76 94 -80 96 -5
2 -12 -17 -15 -42z"/>
<path d="M3237 1084 c-66 -62 -166 -116 -247 -133 -30 -7 -137 -19 -237 -26
-318 -25 -407 -48 -584 -151 -56 -33 -111 -77 -167 -133 -45 -46 -81 -85 -79
-87 1 -2 46 19 99 45 138 69 228 91 447 107 271 19 432 55 560 125 30 16 56
27 59 25 5 -6 -49 -102 -102 -181 -115 -173 -285 -269 -511 -290 -116 -11 -69
-29 80 -29 140 -1 199 11 310 64 238 114 404 364 430 648 4 39 5 72 4 72 -2
-1 -30 -25 -62 -56z"/>
<path d="M230 1033 c1 -195 95 -390 251 -520 72 -58 197 -120 284 -138 87 -18
239 -18 325 -1 l65 14 -61 1 c-222 4 -388 65 -517 190 -76 73 -204 265 -195
291 2 5 29 -7 61 -27 32 -19 100 -50 151 -68 84 -30 114 -35 297 -50 223 -17
310 -29 380 -50 63 -18 190 -78 244 -114 25 -17 45 -26 45 -21 0 5 -46 56
-102 113 -112 113 -203 179 -282 202 -93 28 -332 65 -513 80 -98 8 -192 18
-208 23 -56 17 -117 53 -165 98 -26 24 -50 44 -54 44 -3 0 -6 -30 -6 -67z"/>
<path d="M3265 613 c12 -10 38 -32 59 -49 l38 -32 -24 -22 c-48 -47 -173 -121
-237 -141 -81 -25 -190 -45 -296 -55 l-80 -7 45 -14 c25 -8 104 -17 175 -20
222 -9 330 31 461 170 40 43 74 82 74 86 0 10 -169 88 -208 97 -27 5 -27 5 -7
-13z"/>
<path d="M170 603 c-42 -8 -170 -64 -170 -75 0 -6 28 -38 63 -72 150 -145 317
-199 546 -176 131 14 154 25 72 34 -233 26 -402 86 -518 183 l-28 23 50 45
c51 45 49 49 -15 38z"/>
<path d="M1866 469 c3 -6 43 -38 88 -71 97 -73 238 -143 318 -160 32 -7 58
-15 58 -19 0 -17 -92 -42 -171 -46 -123 -8 -171 10 -263 98 -40 37 -81 84 -91
104 -25 45 -35 44 -36 -2 -2 -66 2 -87 26 -140 32 -72 110 -147 191 -185 131
-61 316 -47 438 34 46 30 176 180 176 203 0 6 -44 10 -118 11 -142 0 -181 10
-429 110 -100 41 -185 74 -188 74 -4 0 -3 -5 1 -11z"/>
<path d="M1540 439 c-98 -46 -322 -119 -408 -135 -43 -7 -116 -13 -164 -14
-58 0 -88 -4 -88 -11 0 -25 66 -132 99 -161 42 -37 115 -72 196 -93 75 -19 99
-19 188 1 100 23 163 57 229 126 71 73 108 146 108 207 l-1 46 -27 -35 c-157
-204 -303 -267 -457 -196 -33 15 -68 34 -78 44 -18 16 -15 17 50 29 77 14 219
81 353 168 95 61 95 68 0 24z"/>
</g>
</svg>
